<svg width="1200" height="800" viewBox="0 0 1200 800" fill="none" xmlns="http://www.w3.org/2000/svg"><defs><linearGradient id="bg" x1="0" y1="0" x2="1200" y2="800"><stop stop-color="#0E1621"/><stop offset="1" stop-color="#2A3A4A"/></linearGradient></defs><rect width="1200" height="800" fill="url(#bg)"/><rect x="120" y="90" width="960" height="620" rx="26" fill="#24303B" stroke="#AAB7C3" stroke-width="6"/><rect x="190" y="180" width="230" height="130" rx="14" fill="#EEE6D8"/><rect x="485" y="150" width="230" height="130" rx="14" fill="#EEE6D8"/><rect x="780" y="190" width="210" height="130" rx="14" fill="#EEE6D8"/><rect x="260" y="410" width="220" height="140" rx="14" fill="#EEE6D8"/><rect x="560" y="410" width="220" height="140" rx="14" fill="#EEE6D8"/><rect x="820" y="410" width="160" height="140" rx="14" fill="#EEE6D8"/><path d="M410 240C480 210 540 206 610 214" stroke="#78B7FF" stroke-width="6"/><path d="M715 240C785 236 828 242 876 255" stroke="#78B7FF" stroke-width="6"/><path d="M350 470C470 426 570 430 670 470" stroke="#78B7FF" stroke-width="6"/><path d="M673 472C732 455 805 458 862 472" stroke="#78B7FF" stroke-width="6"/><text x="600" y="738" text-anchor="middle" fill="#EEF5FA" font-size="42" font-family="Georgia, serif">중간 추리 2</text><text x="600" y="774" text-anchor="middle" fill="#CAD6E0" font-size="24" font-family="sans-serif">이제 구조뿐 아니라 동기도 모양을 갖춘다</text></svg>