<svg width="1200" height="800" viewBox="0 0 1200 800" fill="none" xmlns="http://www.w3.org/2000/svg"><defs><linearGradient id="bg" x1="0" y1="0" x2="1200" y2="800"><stop stop-color="#161B27"/><stop offset="1" stop-color="#3C2B36"/></linearGradient></defs><rect width="1200" height="800" fill="url(#bg)"/><rect x="130" y="90" width="940" height="620" rx="26" fill="#5A4639" stroke="#C7A372" stroke-width="8"/><rect x="210" y="170" width="210" height="150" rx="12" fill="#ECE5D8" transform="rotate(-3 210 170)"/><rect x="470" y="145" width="210" height="150" rx="12" fill="#ECE5D8" transform="rotate(4 470 145)"/><rect x="730" y="195" width="210" height="150" rx="12" fill="#ECE5D8" transform="rotate(-5 730 195)"/><rect x="300" y="400" width="230" height="150" rx="12" fill="#ECE5D8" transform="rotate(2 300 400)"/><rect x="650" y="425" width="230" height="150" rx="12" fill="#ECE5D8" transform="rotate(-2 650 425)"/><path d="M420 230C510 190 560 205 650 220" stroke="#C74646" stroke-width="6"/><path d="M600 260C690 300 728 280 808 264" stroke="#C74646" stroke-width="6"/><path d="M392 470C510 420 598 402 716 456" stroke="#C74646" stroke-width="6"/><path d="M815 348C838 390 824 430 774 452" stroke="#C74646" stroke-width="6"/><text x="600" y="738" text-anchor="middle" fill="#F2F0EA" font-size="42" font-family="Georgia, serif">중간 추리</text><text x="600" y="774" text-anchor="middle" fill="#D6CEC2" font-size="24" font-family="sans-serif">사실은 흩어져 있고, 연결은 아직 거칠다</text></svg>