<svg width="1200" height="800" viewBox="0 0 1200 800" fill="none" xmlns="http://www.w3.org/2000/svg"><defs><linearGradient id="bg" x1="0" y1="0" x2="1200" y2="800"><stop stop-color="#0C1119"/><stop offset="1" stop-color="#31263A"/></linearGradient><radialGradient id="spot" cx="0" cy="0" r="1" gradientUnits="userSpaceOnUse" gradientTransform="translate(600 280) rotate(90) scale(260 390)"><stop stop-color="#FFF0C8" stop-opacity="0.35"/><stop offset="1" stop-color="#FFF0C8" stop-opacity="0"/></radialGradient></defs><rect width="1200" height="800" fill="url(#bg)"/><ellipse cx="600" cy="280" rx="390" ry="260" fill="url(#spot)"/><rect x="190" y="140" width="820" height="500" rx="30" fill="#1C2533" stroke="#D9BE8A" stroke-width="6"/><rect x="310" y="220" width="180" height="110" rx="12" fill="#EFE5D3"/><rect x="520" y="200" width="180" height="110" rx="12" fill="#EFE5D3"/><rect x="730" y="220" width="180" height="110" rx="12" fill="#EFE5D3"/><rect x="410" y="390" width="180" height="110" rx="12" fill="#EFE5D3"/><rect x="620" y="390" width="180" height="110" rx="12" fill="#EFE5D3"/><path d="M490 274C540 252 590 246 610 255" stroke="#E14D4D" stroke-width="7"/><path d="M700 256C735 251 770 255 804 272" stroke="#E14D4D" stroke-width="7"/><path d="M560 430C600 390 630 358 680 330" stroke="#E14D4D" stroke-width="7"/><path d="M720 418C760 390 786 360 820 318" stroke="#E14D4D" stroke-width="7"/><text x="600" y="728" text-anchor="middle" fill="#F4F0E7" font-size="42" font-family="Georgia, serif">최종 추리</text><text x="600" y="766" text-anchor="middle" fill="#D8D0C2" font-size="24" font-family="sans-serif">남은 건 진실을 어떤 모양으로 꺼낼지다</text></svg>