<svg width="1200" height="800" viewBox="0 0 1200 800" fill="none" xmlns="http://www.w3.org/2000/svg">
  <defs>
    <linearGradient id="wall" x1="0" y1="0" x2="1200" y2="800" gradientUnits="userSpaceOnUse">
      <stop stop-color="#13233A"/>
      <stop offset="1" stop-color="#3A2A2A"/>
    </linearGradient>
    <radialGradient id="windowGlow" cx="0" cy="0" r="1" gradientUnits="userSpaceOnUse" gradientTransform="translate(840 260) rotate(90) scale(220 160)">
      <stop stop-color="#E7F6FF" stop-opacity="0.85"/>
      <stop offset="1" stop-color="#A2C5E8" stop-opacity="0.05"/>
    </radialGradient>
  </defs>
  <rect width="1200" height="800" fill="url(#wall)"/>
  <rect x="110" y="70" width="470" height="640" rx="24" fill="#274061" stroke="#D4B26A" stroke-width="8"/>
  <rect x="770" y="120" width="250" height="300" rx="18" fill="#1D2A42" stroke="#9BBCE2" stroke-width="6"/>
  <rect x="800" y="150" width="190" height="240" rx="12" fill="#0A1324"/>
  <ellipse cx="895" cy="275" rx="135" ry="175" fill="url(#windowGlow)"/>
  <path d="M808 372C846 350 876 381 914 359C947 340 977 357 1005 343" stroke="#EAF7FF" stroke-opacity="0.75" stroke-width="5" stroke-linecap="round"/>
  <path d="M835 392C860 378 892 397 922 383C951 369 972 380 988 375" stroke="#EAF7FF" stroke-opacity="0.55" stroke-width="4" stroke-linecap="round"/>
  <circle cx="512" cy="392" r="10" fill="#F1D39A"/>
  <rect x="528" y="286" width="20" height="198" rx="10" fill="#C8A25C"/>
  <rect x="100" y="570" width="520" height="150" rx="22" fill="#473833"/>
  <rect x="148" y="597" width="252" height="78" rx="16" fill="#2A2020"/>
  <path d="M200 639C270 604 356 607 414 648" stroke="#6E5F58" stroke-width="12" stroke-linecap="round"/>
  <path d="M700 520C742 503 790 505 838 512" stroke="#ADC8E8" stroke-opacity="0.55" stroke-width="7" stroke-dasharray="10 12"/>
  <circle cx="665" cy="538" r="9" fill="#D9B874"/>
  <text x="600" y="742" text-anchor="middle" fill="#F0F4FA" font-size="42" font-family="Georgia, serif">707호 객실</text>
  <text x="600" y="780" text-anchor="middle" fill="#C5D0E3" font-size="24" font-family="sans-serif">창문은 너무 좁고, 걸쇠는 너무 매끈하다</text>
</svg>
