<svg width="1200" height="800" viewBox="0 0 1200 800" fill="none" xmlns="http://www.w3.org/2000/svg">
  <defs>
    <linearGradient id="bg" x1="0" y1="0" x2="1200" y2="800" gradientUnits="userSpaceOnUse">
      <stop stop-color="#1B132C"/>
      <stop offset="1" stop-color="#41233F"/>
    </linearGradient>
    <radialGradient id="spot" cx="0" cy="0" r="1" gradientUnits="userSpaceOnUse" gradientTransform="translate(846 262) rotate(90) scale(280 180)">
      <stop stop-color="#F5C7F4" stop-opacity="0.95"/>
      <stop offset="1" stop-color="#F5C7F4" stop-opacity="0"/>
    </radialGradient>
  </defs>
  <rect width="1200" height="800" fill="url(#bg)"/>
  <rect x="60" y="520" width="1080" height="220" rx="30" fill="#2C1B22"/>
  <ellipse cx="850" cy="275" rx="205" ry="265" fill="url(#spot)"/>
  <path d="M835 220C882 220 924 260 924 313V520H760V313C760 260 793 220 835 220Z" fill="#0E0D16"/>
  <path d="M814 235C821 188 868 188 875 235" stroke="#E5B4E4" stroke-width="16" stroke-linecap="round"/>
  <circle cx="828" cy="292" r="8" fill="#F9D5C2"/>
  <circle cx="866" cy="292" r="8" fill="#F9D5C2"/>
  <path d="M819 335C835 350 855 350 873 335" stroke="#F0C3D9" stroke-width="6" stroke-linecap="round"/>
  <path d="M760 350C712 385 682 454 674 520" stroke="#0E0D16" stroke-width="34" stroke-linecap="round"/>
  <path d="M924 350C971 386 999 452 1006 520" stroke="#0E0D16" stroke-width="34" stroke-linecap="round"/>
  <rect x="275" y="300" width="18" height="240" rx="9" fill="#BEC6D8"/>
  <circle cx="284" cy="282" r="24" fill="#D9E0EF"/>
  <rect x="196" y="540" width="220" height="26" rx="13" fill="#5B3B37"/>
  <rect x="154" y="556" width="304" height="38" rx="18" fill="#1A1417"/>
  <circle cx="533" cy="624" r="7" fill="#E7B6FF"/>
  <circle cx="566" cy="646" r="5" fill="#E7B6FF" fill-opacity="0.6"/>
  <circle cx="593" cy="610" r="9" fill="#E7B6FF" fill-opacity="0.75"/>
  <path d="M550 635C618 600 689 586 756 601" stroke="#C29AE1" stroke-width="7" stroke-dasharray="10 12" opacity="0.6"/>
  <text x="600" y="733" text-anchor="middle" fill="#F6EBF7" font-size="42" font-family="Georgia, serif">심야 라운지 바</text>
  <text x="600" y="772" text-anchor="middle" fill="#D9C7DD" font-size="24" font-family="sans-serif">향수와 재즈는 늘 알리바이를 복잡하게 만든다</text>
</svg>
