<svg width="1200" height="800" viewBox="0 0 1200 800" fill="none" xmlns="http://www.w3.org/2000/svg">
  <defs>
    <linearGradient id="sky" x1="0" y1="0" x2="1200" y2="800" gradientUnits="userSpaceOnUse">
      <stop stop-color="#08111D"/>
      <stop offset="1" stop-color="#213754"/>
    </linearGradient>
    <radialGradient id="fog" cx="0" cy="0" r="1" gradientUnits="userSpaceOnUse" gradientTransform="translate(600 260) rotate(90) scale(280 520)">
      <stop stop-color="#E5EEF9" stop-opacity="0.28"/>
      <stop offset="1" stop-color="#E5EEF9" stop-opacity="0"/>
    </radialGradient>
  </defs>
  <rect width="1200" height="800" fill="url(#sky)"/>
  <ellipse cx="600" cy="260" rx="520" ry="280" fill="url(#fog)"/>
  <rect x="120" y="470" width="960" height="120" rx="18" fill="#2A3745"/>
  <rect x="120" y="590" width="960" height="28" fill="#8496A8"/>
  <rect x="180" y="322" width="18" height="268" fill="#92A5B8"/>
  <rect x="1002" y="322" width="18" height="268" fill="#92A5B8"/>
  <rect x="330" y="350" width="18" height="240" fill="#92A5B8"/>
  <rect x="480" y="350" width="18" height="240" fill="#92A5B8"/>
  <rect x="630" y="350" width="18" height="240" fill="#92A5B8"/>
  <rect x="780" y="350" width="18" height="240" fill="#92A5B8"/>
  <path d="M180 350H1020" stroke="#AEBFD1" stroke-width="14"/>
  <path d="M560 514C616 486 676 488 738 514" stroke="#DCE8F5" stroke-width="7" stroke-dasharray="10 12" opacity="0.6"/>
  <path d="M432 333C474 312 520 310 563 326" stroke="#D8E3EF" stroke-width="6" stroke-linecap="round"/>
  <text x="600" y="714" text-anchor="middle" fill="#ECF3FA" font-size="42" font-family="Georgia, serif">후미 전망 데크</text>
  <text x="600" y="754" text-anchor="middle" fill="#C6D3E2" font-size="24" font-family="sans-serif">바깥으로 나간 흔적이 아니라, 나간 척한 흔적</text>
</svg>
