<svg width="1200" height="800" viewBox="0 0 1200 800" fill="none" xmlns="http://www.w3.org/2000/svg">
  <defs>
    <linearGradient id="bg" x1="0" y1="0" x2="1200" y2="800" gradientUnits="userSpaceOnUse">
      <stop stop-color="#0E1624"/>
      <stop offset="1" stop-color="#27344E"/>
    </linearGradient>
  </defs>
  <rect width="1200" height="800" fill="url(#bg)"/>
  <rect x="100" y="100" width="1000" height="560" rx="26" fill="#152238" stroke="#8AA4CB" stroke-opacity="0.2"/>
  <polygon points="160,620 1040,620 1160,800 40,800" fill="#4E4037"/>
  <rect x="180" y="150" width="210" height="390" rx="12" fill="#22324F" stroke="#D4B26A" stroke-width="6"/>
  <text x="285" y="182" text-anchor="middle" fill="#F1D39A" font-size="34" font-family="Georgia, serif">706</text>
  <rect x="810" y="150" width="210" height="390" rx="12" fill="#22324F" stroke="#D4B26A" stroke-width="6"/>
  <text x="915" y="182" text-anchor="middle" fill="#F1D39A" font-size="34" font-family="Georgia, serif">708</text>
  <circle cx="516" cy="418" r="34" fill="#D6E3F6" opacity="0.85"/>
  <circle cx="684" cy="392" r="34" fill="#EAD4C8" opacity="0.85"/>
  <path d="M516 452C516 510 492 562 458 588" stroke="#D6E3F6" stroke-width="26" stroke-linecap="round"/>
  <path d="M684 426C704 498 748 548 788 582" stroke="#EAD4C8" stroke-width="26" stroke-linecap="round"/>
  <path d="M540 410C586 388 628 384 662 390" stroke="#AFC2E4" stroke-width="6" stroke-dasharray="10 10" opacity="0.6"/>
  <text x="600" y="726" text-anchor="middle" fill="#EEF3FA" font-size="42" font-family="Georgia, serif">706호와 708호 사이 복도</text>
  <text x="600" y="766" text-anchor="middle" fill="#C7D3E6" font-size="24" font-family="sans-serif">증언은 늘 사실보다 사람을 더 많이 보여 준다</text>
</svg>
